<svg xmlns="http://www.w3.org/2000/svg" xmlns:xlink="http://www.w3.org/1999/xlink"><symbol id="sprite-arrow-down" fill="none" viewBox="0 0 12 12"><path stroke="#fff" d="m11.46 3.82-5.46 4.9-5.45-4.9"/></symbol><use xlink:href="#sprite-arrow-down" width="12" height="12"/><view id="sprite-arrow-down-view" viewBox="0 0 12 12"/><symbol id="sprite-arrow" fill="none" viewBox="0 0 8 8"><path stroke="#fff" stroke-width=".8" d="m.8 7.2 6.4-6.4m0 0h-6.36m6.36 0v6.36"/></symbol><use xlink:href="#sprite-arrow" width="8" height="8" y="12"/><view id="sprite-arrow-view" viewBox="0 12 8 8"/><symbol id="sprite-connecter" fill="none" viewBox="0 0 20 20"><path fill="#fff" d="M20 20a20 20 0 0 1-20-20v20z"/></symbol><use xlink:href="#sprite-connecter" width="20" height="20" y="20"/><view id="sprite-connecter-view" viewBox="0 20 20 20"/><symbol id="sprite-dropdown" fill="none" viewBox="0 0 16 9"><path stroke="#484848" d="m15.27 1.09-7.27 6.55-7.27-6.55"/></symbol><use xlink:href="#sprite-dropdown" width="16" height="9" y="40"/><view id="sprite-dropdown-view" viewBox="0 40 16 9"/><symbol id="sprite-logo" fill="none" viewBox="0 0 30 30"><path fill="#316DC2" d="M.92 8.8c-.85.6-1.35 1.9-.41 3.43s14.38 11.9 14.88 12.2c.49.28.98.33 2.24-.68 1.25-1 11.74-8.88 12-9.12.44-.38.54-1.3 0-1.73 0 0-12.7 9.5-13.11 9.89-.42.38-1.06-.24-.94-1.06.12-.81.2-.9 1.82-2.16l11.18-8.48c.47-.35.48-.96-.3-1.5l-13.01-9.27c-.4-.3-.93-.55-1.73.02-.81.58-11.06 7.35-12.62 8.46"/><path fill="#316DC2" d="M15.39 25.43c-.33-.19-6.23-4.71-10.51-8.24v7.35c0 5.37 15.12 8.24 20.13 1.64v-7.03a766 766 0 0 0-7.38 5.61c-1.26 1-1.75.96-2.24.67"/><path fill="#98B8E6" d="M21.78 17.37s2.25 1.13 2.41 5.68l-1.09-.3-.87 1.85c-.37-4.98-2.37-5.7-2.37-5.7z"/></symbol><use xlink:href="#sprite-logo" width="30" height="30" y="49"/><view id="sprite-logo-view" viewBox="0 49 30 30"/><symbol id="sprite-ok" fill="none" viewBox="0 0 10 17"><path fill="#fff" d="M5 2.92c.96 0 1.74.77 1.74 1.71s-.78 1.7-1.74 1.7-1.74-.76-1.74-1.7.78-1.71 1.74-1.71m0 5.84a4.2 4.2 0 0 0 4.21-4.13 4.2 4.2 0 0 0-4.21-4.13 4.17 4.17 0 0 0-4.21 4.13 4.17 4.17 0 0 0 4.21 4.13m1.7 3.37q1.3-.3 2.45-1c.58-.35.75-1.1.39-1.66a1.25 1.25 0 0 0-1.7-.39 5.4 5.4 0 0 1-5.68 0 1.24 1.24 0 0 0-1.7.39 1.2 1.2 0 0 0 .39 1.66q1.15.7 2.45 1l-2.36 2.3a1.2 1.2 0 0 0 0 1.71 1.25 1.25 0 0 0 1.75 0l2.31-2.26 2.32 2.26c.48.48 1.26.48 1.74 0a1.2 1.2 0 0 0 0-1.7z"/></symbol><use xlink:href="#sprite-ok" width="10" height="17" y="79"/><view id="sprite-ok-view" viewBox="0 79 10 17"/><symbol id="sprite-reddit" fill="none" viewBox="0 0 16 17"><path fill="#fff" d="M9.42.86c-.47 0-.9.25-1.19.61q-.4.56-.55 1.26c-.18.74-.23 1.56-.25 2.3-1.3.09-2.5.5-3.48 1.13-.4-.36-.88-.55-1.34-.55-.53 0-1.03.25-1.4.74-.71.93-.63 2.46.2 3.36q-.1.42-.1.86c0 3.08 3 5.57 6.69 5.57s6.69-2.5 6.69-5.57q0-.44-.1-.86c.83-.9.91-2.43.2-3.36a1.8 1.8 0 0 0-1.4-.74c-.46 0-.94.2-1.34.55a7.4 7.4 0 0 0-3.47-1.13c.02-.69.07-1.4.2-1.93q.12-.5.28-.7c.1-.14.18-.2.36-.2.37 0 .42.13.65.44q.15.25.46.55c.21.19.53.35.87.35v-1.34c-.1 0-.12 0-.18-.06q-.1-.1-.28-.38c-.26-.36-.77-.9-1.52-.9m3.67.13c-.88 0-1.59.84-1.59 1.88s.71 1.88 1.6 1.88c.87 0 1.59-.84 1.59-1.88s-.72-1.88-1.6-1.88m0 .67c.57 0 1.03.54 1.03 1.21s-.46 1.22-1.03 1.22c-.56 0-1.02-.55-1.02-1.22s.46-1.21 1.02-1.21m-5.09 4.41c3.13 0 5.78 2.07 5.78 4.5s-2.65 4.5-5.78 4.5-5.78-2.06-5.78-4.5 2.65-4.5 5.78-4.5m-5.38.61q.24 0 .48.13a6 6 0 0 0-1.32 1.75c-.22-.52-.16-1.16.1-1.5a.9.9 0 0 1 .74-.38m10.76 0a.9.9 0 0 1 .74.38c.26.34.32.98.1 1.5a6 6 0 0 0-1.32-1.75 1 1 0 0 1 .48-.13m-7.64 1.67c-.57 0-1.03.55-1.03 1.22s.46 1.21 1.03 1.21c.56 0 1.02-.54 1.02-1.21s-.46-1.22-1.02-1.22m4.52 0c-.56 0-1.02.55-1.02 1.22s.46 1.21 1.02 1.21 1.03-.54 1.03-1.21-.46-1.22-1.03-1.22m-5.07 4.13a3.1 3.1 0 0 0 2.81 1.73c1.34 0 2.47-.85 2.83-1.74-.65.5-1.69.84-2.83.84a4.7 4.7 0 0 1-2.81-.84Z"/></symbol><use xlink:href="#sprite-reddit" width="16" height="17" y="96"/><view id="sprite-reddit-view" viewBox="0 96 16 17"/><symbol id="sprite-star-1" fill="none" viewBox="0 0 18 22"><g clip-path="url(#a)"><path fill="#fff" d="m9 0 3.01 5.47 5.99.03-2.97 5.5 2.97 5.5-5.99.03-3.01 5.47-3.01-5.47-5.99-.03 2.97-5.5-2.97-5.5 5.99-.03z"/></g><defs><clipPath id="a"><path fill="#fff" d="M0 0h18v22h-18z"/></clipPath></defs></symbol><use xlink:href="#sprite-star-1" width="18" height="22" y="113"/><view id="sprite-star-1-view" viewBox="0 113 18 22"/><symbol id="sprite-swiper-button" fill="none" viewBox="0 0 10 10"><path stroke="#316DC2" stroke-width="1.667" d="M0 4.74h8.33m0 0-4.14 4.43m4.14-4.43-4.14-3.9"/></symbol><use xlink:href="#sprite-swiper-button" width="10" height="10" y="135"/><view id="sprite-swiper-button-view" viewBox="0 135 10 10"/><symbol id="sprite-tick" fill="none" viewBox="0 0 10 8"><path stroke="#fff" stroke-linecap="round" stroke-linejoin="round" d="m1 3.5 2.95 3.5 5.05-6"/></symbol><use xlink:href="#sprite-tick" width="10" height="8" y="145"/><view id="sprite-tick-view" viewBox="0 145 10 8"/><symbol id="sprite-translate" fill="none" viewBox="0 0 24 24"><path stroke="#292D32" stroke-linecap="round" stroke-linejoin="round" stroke-width="1.5" d="m19.06 18.67-2.14-4.27-2.14 4.27m.39-.76h3.52"/><path stroke="#292D32" stroke-linecap="round" stroke-linejoin="round" stroke-width="1.5" d="M16.92 22a5.08 5.08 0 1 1 0-10.16 5.08 5.08 0 0 1 0 10.16m-11.9-20h3.92q3.1 0 3.02 3.02v3.92q.08 3.1-3.02 3.02h-3.92q-3.03.07-3.02-3.03v-3.92q0-3.01 3.02-3.01m3.99 3.85h-4.06m2.02-.68v.68"/><path stroke="#292D32" stroke-linecap="round" stroke-linejoin="round" stroke-width="1.5" d="M7.99 5.84a3.1 3.1 0 0 1-3.05 3.17"/><path stroke="#292D32" stroke-linecap="round" stroke-linejoin="round" stroke-width="1.5" d="M9.01 9.01c-.73 0-1.39-.39-1.85-1.01m-5.16 7a7 7 0 0 0 7 7l-1.05-1.75m14.05-11.25a7 7 0 0 0-7-7l1.05 1.75"/></symbol><use xlink:href="#sprite-translate" width="24" height="24" y="153"/><view id="sprite-translate-view" viewBox="0 153 24 24"/><symbol id="sprite-vk" fill="none" viewBox="0 0 16 9"><path fill="#fff" d="M15.86 7.92c-.05-.07-.31-.62-1.6-1.76-1.33-1.19-1.15-1 .46-3.05.99-1.25 1.38-2.02 1.26-2.34s-.84-.23-.84-.23l-2.4.01s-.19-.02-.32.05-.21.25-.21.25-.38.97-.9 1.8c-1.06 1.73-1.5 1.82-1.67 1.72-.4-.26-.3-1.02-.3-1.55 0-1.69.27-2.4-.52-2.57-.26-.06-.46-.1-1.13-.11-.85-.01-1.58 0-2 .2-.27.12-.48.4-.35.42.16.02.52.1.71.34.25.33.24 1.05.24 1.05s.14 1.98-.33 2.23c-.33.17-.77-.18-1.73-1.76-.48-.8-.85-1.7-.85-1.7s-.08-.17-.2-.25a1 1 0 0 0-.37-.15l-2.29.02s-.34 0-.47.15c-.11.13 0 .39 0 .39s1.78 4 3.81 6.02c1.86 1.85 3.97 1.73 3.97 1.73h.95s.3-.03.44-.19c.14-.14.13-.4.13-.4s-.02-1.22.58-1.4c.59-.18 1.34 1.18 2.14 1.7.6.4 1.06.32 1.06.32l2.14-.03s1.12-.07.59-.9Z"/></symbol><use xlink:href="#sprite-vk" width="16" height="9" y="177"/><view id="sprite-vk-view" viewBox="0 177 16 9"/></svg>